<?xml version="1.0" encoding="utf-8"?>
<!-- Generator: Adobe Illustrator 28.1.0, SVG Export Plug-In . SVG Version: 6.00 Build 0)  -->
<svg version="1.1" id="Warstwa_1" xmlns="http://www.w3.org/2000/svg" xmlns:xlink="http://www.w3.org/1999/xlink" x="0px" y="0px"
	 viewBox="0 0 133.73 190.19" style="enable-background:new 0 0 133.73 190.19;" xml:space="preserve">
<style type="text/css">
	.st0{fill:#77BECC;}
	.st1{fill:#E9F1F2;}
	.st2{fill:#26243A;}
	.st3{fill:#326982;}
	.st4{fill:#1F5066;}
	.st5{fill:#385359;}
	.st6{fill:#A19C97;}
	.st7{fill:#205E73;}
	.st8{fill:#AAB6DD;}
	.st9{fill:none;stroke:#77BECC;stroke-width:8;stroke-miterlimit:10;}
	.st10{fill:none;stroke:#26243A;stroke-width:8;stroke-miterlimit:10;}
	.st11{fill:none;stroke:#A19C97;stroke-width:8;stroke-miterlimit:10;}
	.st12{fill:none;stroke:#326982;stroke-width:8;stroke-miterlimit:10;}
	.st13{fill:none;stroke:#1F5066;stroke-width:8;stroke-miterlimit:10;}
	.st14{fill:none;stroke:#AAB6DD;stroke-width:8;stroke-miterlimit:10;}
	.st15{fill:#97CCA1;}
	.st16{fill:#A6A498;}
	.st17{fill:#95B8BF;}
	.st18{fill:#1B1D39;}
	.st19{fill:#57828C;}
	.st20{fill:none;stroke:#95B8BF;stroke-width:8;stroke-miterlimit:10;}
	.st21{fill:none;stroke:#1B1D39;stroke-width:8;stroke-miterlimit:10;}
	.st22{fill:none;stroke:#A6A498;stroke-width:8;stroke-miterlimit:10;}
	.st23{fill:none;stroke:#57828C;stroke-width:8;stroke-miterlimit:10;}
	.st24{fill:none;stroke:#385359;stroke-width:8;stroke-miterlimit:10;}
	.st25{clip-path:url(#SVGID_00000015338551592550157150000013584733177752612529_);}
	.st26{clip-path:url(#SVGID_00000181055461104768479750000009359520750533374396_);}
	.st27{clip-path:url(#SVGID_00000170966741446990864210000003135124218859046017_);}
	.st28{fill:#C13C18;}
	.st29{fill:#7CBA45;}
	.st30{fill:#CE8F09;}
	.st31{clip-path:url(#SVGID_00000003103471346459289760000000749003877362726786_);}
	.st32{clip-path:url(#SVGID_00000044898847163589007920000001275450572207596465_);}
	.st33{clip-path:url(#SVGID_00000001645930291109233220000004270400803868397740_);}
	.st34{clip-path:url(#SVGID_00000084512057283043429810000008932715631273299643_);}
	.st35{clip-path:url(#SVGID_00000051365339278293527880000011486101302523009675_);}
	.st36{clip-path:url(#SVGID_00000076589485203271506360000002787214255844417453_);}
	.st37{clip-path:url(#SVGID_00000164495277386343200230000008580921197571502514_);}
	.st38{clip-path:url(#SVGID_00000060751137071071788540000003746941282165839294_);}
	.st39{clip-path:url(#SVGID_00000066487781464018401580000013354120402536949422_);}
	.st40{fill:#7ACDF4;}
	.st41{fill:#3187A5;}
	.st42{fill:#205066;}
	.st43{fill:#FFFFFF;}
</style>
<g>
	<defs>
		<circle id="SVGID_00000091719714256301766280000003800748466738564743_" cx="889.8" cy="1558.44" r="356"/>
	</defs>
	<clipPath id="SVGID_00000040551535702271362530000004131153920917251217_">
		<use xlink:href="#SVGID_00000091719714256301766280000003800748466738564743_"  style="overflow:visible;"/>
	</clipPath>
	<g style="clip-path:url(#SVGID_00000040551535702271362530000004131153920917251217_);">
		<path class="st0" d="M133.86,173.2c-0.03,3.34-3.12,6.52-6.48,6.66c-3.8,0.15-7.14-3.37-6.83-7.21c0.27-3.47,3.41-6.25,6.89-6.11
			C130.85,166.68,133.89,169.83,133.86,173.2z"/>
		<path class="st0" d="M97.58,137.73c3.63,0.04,6.35,2.98,6.16,6.65c-0.17,3.2-2.69,5.8-5.84,6.01c-3.36,0.22-6.67-2.8-6.77-6.19
			C91.03,140.77,94.1,137.69,97.58,137.73z"/>
		<path class="st0" d="M133.76,143.73c0.16,3.39-2.88,6.71-6.3,6.89c-3.46,0.18-6.66-2.77-6.83-6.29c-0.17-3.57,2.69-6.71,6.23-6.85
			C130.37,137.34,133.6,140.27,133.76,143.73z"/>
		<path class="st0" d="M10.07,179.73c-3.36,0.25-6.68-2.64-6.96-6.07c-0.28-3.53,2.41-6.64,6-6.92c3.59-0.29,6.68,2.38,6.9,5.98
			C16.24,176.24,13.5,179.47,10.07,179.73z"/>
		<path class="st0" d="M68.31,166.76c3.7-0.03,6.57,2.92,6.45,6.63c-0.11,3.21-2.67,5.95-5.84,6.24c-3.42,0.31-6.83-2.67-7.03-6.15
			C61.7,170.01,64.77,166.79,68.31,166.76z"/>
		<path class="st0" d="M97.68,166.68c3.56,0.09,6.39,3.1,6.28,6.7c-0.11,3.45-3.29,6.48-6.67,6.35c-3.37-0.13-6.47-3.41-6.37-6.75
			C91.02,169.59,94.24,166.59,97.68,166.68z"/>
		<path class="st0" d="M45.12,173.24c-0.04,3.6-3.24,6.66-6.71,6.42c-3.57-0.25-6.43-3.55-6.12-7.04c0.29-3.23,2.91-5.69,6.22-5.81
			C42.18,166.67,45.16,169.56,45.12,173.24z"/>
		<path class="st0" d="M68.18,138.09c3.36-0.1,5.94,2.22,6.16,5.51c0.21,3.25-2.13,6.11-5.29,6.46c-3.55,0.4-6.75-2.52-6.71-6.1
			C62.37,140.72,64.9,138.18,68.18,138.09z"/>
		<path class="st0" d="M15.63,143.77c0.13,3.16-2.35,5.96-5.51,6.24c-3.5,0.31-6.72-2.75-6.58-6.23c0.13-3.13,2.85-5.67,6.06-5.65
			C12.89,138.14,15.5,140.58,15.63,143.77z"/>
		<path class="st0" d="M38.97,149.6c-3.21,0.15-6.07-2.53-6.01-5.63c0.05-2.71,2.36-5.27,5.06-5.61c3.15-0.39,6.13,1.99,6.47,5.16
			C44.82,146.62,42.25,149.45,38.97,149.6z"/>
	</g>
</g>
<path class="st42" d="M66.86,5.01c-34.93,0-63.34,28.41-63.34,63.34c0,14.2,4.98,30.25,15.24,49.06
	c12.81,23.52,31.25,46.71,43.71,65.41c0.98,1.47,2.63,2.35,4.39,2.35s3.41-0.88,4.39-2.35c12.49-18.74,30.89-41.88,43.71-65.41
	c10.25-18.82,15.24-34.87,15.24-49.06C130.2,33.43,101.79,5.01,66.86,5.01z M66.86,95.1c-14.75,0-26.74-12-26.74-26.74
	s12-26.74,26.74-26.74s26.74,12,26.74,26.74S81.61,95.1,66.86,95.1z"/>
</svg>
