<?xml version="1.0" encoding="utf-8"?>
<!-- Generator: Adobe Illustrator 28.1.0, SVG Export Plug-In . SVG Version: 6.00 Build 0)  -->
<svg version="1.1" id="Warstwa_1" xmlns="http://www.w3.org/2000/svg" xmlns:xlink="http://www.w3.org/1999/xlink" x="0px" y="0px"
	 viewBox="0 0 133.73 190.19" style="enable-background:new 0 0 133.73 190.19;" xml:space="preserve">
<style type="text/css">
	.st0{fill:#77BECC;}
	.st1{fill:#E9F1F2;}
	.st2{fill:#26243A;}
	.st3{fill:#326982;}
	.st4{fill:#1F5066;}
	.st5{fill:#385359;}
	.st6{fill:#A19C97;}
	.st7{fill:#205E73;}
	.st8{fill:#AAB6DD;}
	.st9{fill:none;stroke:#77BECC;stroke-width:8;stroke-miterlimit:10;}
	.st10{fill:none;stroke:#26243A;stroke-width:8;stroke-miterlimit:10;}
	.st11{fill:none;stroke:#A19C97;stroke-width:8;stroke-miterlimit:10;}
	.st12{fill:none;stroke:#326982;stroke-width:8;stroke-miterlimit:10;}
	.st13{fill:none;stroke:#1F5066;stroke-width:8;stroke-miterlimit:10;}
	.st14{fill:none;stroke:#AAB6DD;stroke-width:8;stroke-miterlimit:10;}
	.st15{fill:#97CCA1;}
	.st16{fill:#A6A498;}
	.st17{fill:#95B8BF;}
	.st18{fill:#1B1D39;}
	.st19{fill:#57828C;}
	.st20{fill:none;stroke:#95B8BF;stroke-width:8;stroke-miterlimit:10;}
	.st21{fill:none;stroke:#1B1D39;stroke-width:8;stroke-miterlimit:10;}
	.st22{fill:none;stroke:#A6A498;stroke-width:8;stroke-miterlimit:10;}
	.st23{fill:none;stroke:#57828C;stroke-width:8;stroke-miterlimit:10;}
	.st24{fill:none;stroke:#385359;stroke-width:8;stroke-miterlimit:10;}
	.st25{clip-path:url(#SVGID_00000129926022067335993980000003220640924526766242_);}
	.st26{clip-path:url(#SVGID_00000144336006575586182310000002039209143444414142_);}
	.st27{clip-path:url(#SVGID_00000080191875238594243910000007878079643769091506_);}
	.st28{fill:#C13C18;}
	.st29{fill:#7CBA45;}
	.st30{fill:#CE8F09;}
	.st31{clip-path:url(#SVGID_00000162325891754915206410000008845981462417127589_);}
	.st32{clip-path:url(#SVGID_00000127740706844588444270000014892473028311075200_);}
	.st33{clip-path:url(#SVGID_00000139266541258352005190000012232504164115051197_);}
	.st34{clip-path:url(#SVGID_00000072244556676352339140000002590258391710220436_);}
	.st35{clip-path:url(#SVGID_00000168092132137416483640000011739412169711925912_);}
	.st36{clip-path:url(#SVGID_00000011013574034140929400000016422780762464152215_);}
	.st37{clip-path:url(#SVGID_00000160152931938611778830000008770929082324324276_);}
	.st38{clip-path:url(#SVGID_00000076580431595026214190000011440854681439768963_);}
	.st39{clip-path:url(#SVGID_00000084517966530073229580000000479701103254781829_);}
	.st40{fill:#7ACDF4;}
	.st41{fill:#3187A5;}
	.st42{fill:#205066;}
	.st43{fill:#FFFFFF;}
</style>
<g>
	<defs>
		<circle id="SVGID_00000091719714256301766280000003800748466738564743_" cx="596.47" cy="1558.44" r="356"/>
	</defs>
	<clipPath id="SVGID_00000165920069582478977720000009474367702217922446_">
		<use xlink:href="#SVGID_00000091719714256301766280000003800748466738564743_"  style="overflow:visible;"/>
	</clipPath>
	<g style="clip-path:url(#SVGID_00000165920069582478977720000009474367702217922446_);">
		<path class="st0" d="M10.08,136.35c4.26,0,7.77,3.59,7.68,7.86c-0.09,4.27-3.73,7.58-8.09,7.35c-3.97-0.21-6.98-3.28-7.11-7.26
			C2.42,139.95,5.82,136.35,10.08,136.35z"/>
		<path class="st0" d="M47.17,143.94c0.05,3.95-2.92,7.16-6.87,7.44c-4.31,0.31-8.04-3.08-8.06-7.32c-0.01-4.2,3.74-7.76,7.94-7.52
			C44.01,136.76,47.13,140.06,47.17,143.94z"/>
		<path class="st0" d="M17.69,172.83c0.18,3.91-2.77,7.32-6.72,7.75c-4.44,0.48-8.15-2.71-8.31-7.12c-0.14-4.02,2.72-7.38,6.66-7.82
			C13.55,165.17,17.49,168.54,17.69,172.83z"/>
		<path class="st0" d="M128.26,151.21c-3.93,0.09-7.18-3.14-7.2-7.15c-0.02-3.93,3.27-7.34,7.07-7.33c3.84,0.01,7.28,3.4,7.32,7.2
			C135.49,147.78,132.18,151.13,128.26,151.21z"/>
		<path class="st0" d="M47.06,173.4c-0.12,3.96-3.38,7.11-7.32,7.09c-3.91-0.02-7.26-3.23-7.4-7.09c-0.15-4.21,3.7-7.93,7.9-7.63
			C44.11,166.05,47.18,169.49,47.06,173.4z"/>
		<path class="st0" d="M135.24,172.66c0.28,3.97-2.85,7.48-6.81,7.64c-3.61,0.15-6.7-2.47-7.19-6.11c-0.54-4.03,2.24-7.7,6.18-8.17
			C131.23,165.57,134.97,168.74,135.24,172.66z"/>
		<path class="st0" d="M105.44,174.06c-0.49,4.07-4.09,6.78-8.08,6.08c-3.55-0.62-6.08-3.78-5.9-7.36c0.2-3.91,3.86-7.12,7.68-6.74
			C103.09,166.43,105.93,170.05,105.44,174.06z"/>
		<path class="st0" d="M76.03,173.19c-0.01,3.84-3.35,7.16-7.19,7.13c-3.78-0.03-7.21-3.46-7.18-7.21c0.02-3.69,3.56-7.19,7.25-7.18
			C72.65,165.95,76.03,169.4,76.03,173.19z"/>
		<path class="st0" d="M76.03,143.61c0.23,3.95-2.82,7.36-6.77,7.56c-3.88,0.2-7.38-2.91-7.61-6.78c-0.23-3.78,2.99-7.37,6.82-7.62
			C72.29,136.53,75.8,139.71,76.03,143.61z"/>
		<path class="st0" d="M98.34,136.89c3.77-0.11,7.16,3.32,7.13,7.21c-0.03,3.57-2.76,6.59-6.28,6.94c-3.9,0.38-7.42-2.66-7.65-6.61
			C91.31,140.53,94.48,137.01,98.34,136.89z"/>
	</g>
</g>
<path class="st40" d="M66.86,5.01c-34.93,0-63.34,28.41-63.34,63.34c0,14.2,4.98,30.25,15.24,49.06
	c12.81,23.52,31.25,46.71,43.71,65.41c0.98,1.47,2.63,2.35,4.39,2.35c1.76,0,3.41-0.88,4.39-2.35
	c12.49-18.74,30.89-41.88,43.71-65.41c10.25-18.82,15.24-34.87,15.24-49.06C130.2,33.43,101.79,5.01,66.86,5.01z M66.86,95.1
	c-14.75,0-26.74-12-26.74-26.74s12-26.74,26.74-26.74s26.74,12,26.74,26.74S81.61,95.1,66.86,95.1z"/>
</svg>
