<?xml version="1.0" encoding="utf-8"?>
<!-- Generator: Adobe Illustrator 28.1.0, SVG Export Plug-In . SVG Version: 6.00 Build 0)  -->
<svg version="1.1" id="Warstwa_1" xmlns="http://www.w3.org/2000/svg" xmlns:xlink="http://www.w3.org/1999/xlink" x="0px" y="0px"
	 viewBox="0 0 133.73 190.19" style="enable-background:new 0 0 133.73 190.19;" xml:space="preserve">
<style type="text/css">
	.st0{fill:#77BECC;}
	.st1{fill:#E9F1F2;}
	.st2{fill:#26243A;}
	.st3{fill:#326982;}
	.st4{fill:#1F5066;}
	.st5{fill:#385359;}
	.st6{fill:#A19C97;}
	.st7{fill:#205E73;}
	.st8{fill:#AAB6DD;}
	.st9{fill:none;stroke:#77BECC;stroke-width:8;stroke-miterlimit:10;}
	.st10{fill:none;stroke:#26243A;stroke-width:8;stroke-miterlimit:10;}
	.st11{fill:none;stroke:#A19C97;stroke-width:8;stroke-miterlimit:10;}
	.st12{fill:none;stroke:#326982;stroke-width:8;stroke-miterlimit:10;}
	.st13{fill:none;stroke:#1F5066;stroke-width:8;stroke-miterlimit:10;}
	.st14{fill:none;stroke:#AAB6DD;stroke-width:8;stroke-miterlimit:10;}
	.st15{fill:#97CCA1;}
	.st16{fill:#A6A498;}
	.st17{fill:#95B8BF;}
	.st18{fill:#1B1D39;}
	.st19{fill:#57828C;}
	.st20{fill:none;stroke:#95B8BF;stroke-width:8;stroke-miterlimit:10;}
	.st21{fill:none;stroke:#1B1D39;stroke-width:8;stroke-miterlimit:10;}
	.st22{fill:none;stroke:#A6A498;stroke-width:8;stroke-miterlimit:10;}
	.st23{fill:none;stroke:#57828C;stroke-width:8;stroke-miterlimit:10;}
	.st24{fill:none;stroke:#385359;stroke-width:8;stroke-miterlimit:10;}
	.st25{clip-path:url(#SVGID_00000078745956548397547410000015325688020050888611_);}
	.st26{clip-path:url(#SVGID_00000054986706859796905730000002043360466009755529_);}
	.st27{clip-path:url(#SVGID_00000152973553662229227440000013787499028039315880_);}
	.st28{fill:#C13C18;}
	.st29{fill:#7CBA45;}
	.st30{fill:#CE8F09;}
	.st31{clip-path:url(#SVGID_00000034059062981798964340000006658971619666224559_);}
	.st32{clip-path:url(#SVGID_00000018216652801682845490000004800918004606904214_);}
	.st33{clip-path:url(#SVGID_00000092426604014245648480000015651387608101028019_);}
	.st34{clip-path:url(#SVGID_00000016048790311123938160000014443824716197827974_);}
	.st35{clip-path:url(#SVGID_00000104702437462517621730000008592172920469450661_);}
	.st36{clip-path:url(#SVGID_00000155111211984116721620000004014319050548964737_);}
	.st37{clip-path:url(#SVGID_00000109729294916482464760000011137089793649825201_);}
	.st38{clip-path:url(#SVGID_00000183965029377420447720000004648834982726846134_);}
	.st39{clip-path:url(#SVGID_00000137842446240742658370000008811721410874918039_);}
	.st40{fill:#7ACDF4;}
	.st41{fill:#3187A5;}
	.st42{fill:#205066;}
	.st43{fill:#FFFFFF;}
</style>
<g>
	<defs>
		<circle id="SVGID_00000091719714256301766280000003800748466738564743_" cx="741.8" cy="1558.44" r="356"/>
	</defs>
	<clipPath id="SVGID_00000003072726601746603470000001026864443749892516_">
		<use xlink:href="#SVGID_00000091719714256301766280000003800748466738564743_"  style="overflow:visible;"/>
	</clipPath>
	<g style="clip-path:url(#SVGID_00000003072726601746603470000001026864443749892516_);">
		<path class="st0" d="M133.85,143.55c0.27,3.9-2.61,7.35-6.55,7.85c-4.41,0.56-8.18-2.55-8.42-6.95c-0.22-4,2.56-7.4,6.49-7.92
			C129.59,135.97,133.56,139.26,133.85,143.55z"/>
		<path class="st0" d="M133.87,172.95c0.13,3.87-2.9,7.24-6.82,7.61c-4.4,0.41-8.07-2.83-8.16-7.21c-0.08-3.97,2.85-7.3,6.74-7.68
			C129.83,165.26,133.73,168.71,133.87,172.95z"/>
		<path class="st0" d="M75.03,144.09c-0.05,3.86-3.36,7.15-7.31,7.26c-4.4,0.13-7.84-3.53-7.49-7.97c0.31-3.96,3.79-7.04,7.69-6.81
			C71.78,136.81,75.08,140.3,75.03,144.09z"/>
		<path class="st0" d="M96.37,151.37c-4.03-0.15-7.13-3.4-7.09-7.43c0.04-3.99,3.27-7.3,7.21-7.39c4.31-0.09,8,3.77,7.64,8.01
			C103.8,148.52,100.38,151.52,96.37,151.37z"/>
		<path class="st0" d="M67.33,180.48c-3.99-0.1-7.09-3.29-7.1-7.32c-0.01-3.98,3.13-7.29,7.06-7.43c4.26-0.15,7.97,3.68,7.67,7.89
			C74.68,177.56,71.32,180.58,67.33,180.48z"/>
		<path class="st0" d="M96.89,180.54c-3.98,0.13-7.21-2.73-7.56-6.69c-0.38-4.31,2.92-8.08,7.16-8.18c4.2-0.09,7.89,3.63,7.7,7.77
			C104.01,177.27,100.78,180.42,96.89,180.54z"/>
		<path class="st0" d="M38.36,136.79c3.84,0.22,6.84,3.71,6.61,7.69c-0.24,4.02-3.58,6.98-7.54,6.7c-3.94-0.28-6.97-3.73-6.69-7.62
			C31.02,139.67,34.52,136.56,38.36,136.79z"/>
		<path class="st0" d="M38,180.26c-3.99,0.02-7.26-3.29-7.18-7.25c0.09-3.9,3.64-7.21,7.49-6.98c3.48,0.21,6.43,3.24,6.59,6.78
			C45.08,176.88,41.97,180.23,38,180.26z"/>
		<path class="st0" d="M8.36,180.03c-3.76,0.06-7.17-3.52-6.93-7.27c0.21-3.36,3.42-6.44,6.75-6.48c3.37-0.04,6.58,2.87,6.91,6.29
			C15.45,176.32,12.17,179.97,8.36,180.03z"/>
		<path class="st0" d="M15.21,144.43c-0.26,3.95-4.01,7.04-7.87,6.48c-3.5-0.51-6.27-3.85-6.06-7.3c0.21-3.4,3.5-6.57,6.87-6.62
			C12.01,136.93,15.46,140.56,15.21,144.43z"/>
	</g>
</g>
<path class="st41" d="M66.86,5.01c-34.93,0-63.34,28.41-63.34,63.34c0,14.2,4.98,30.25,15.24,49.06
	c12.81,23.52,31.25,46.71,43.71,65.41c0.98,1.47,2.63,2.35,4.39,2.35s3.41-0.88,4.39-2.35c12.49-18.74,30.89-41.88,43.71-65.41
	c10.25-18.82,15.24-34.87,15.24-49.06C130.2,33.43,101.79,5.01,66.86,5.01z M66.86,95.1c-14.75,0-26.74-12-26.74-26.74
	s12-26.74,26.74-26.74s26.74,12,26.74,26.74S81.61,95.1,66.86,95.1z"/>
</svg>
