<svg width="230" height="70" viewBox="0 0 230 70" fill="none" xmlns="http://www.w3.org/2000/svg">
<g id="Warstwa_1" clip-path="url(#clip0_5_120)">
<path id="Vector" d="M117.769 22.3203C115.43 22.3203 113.251 21.6444 111.411 20.4928V43.4962H124.102V20.5071C122.269 21.6515 120.098 22.3203 117.769 22.3203Z" fill="#26243A"/>
<path id="Vector_2" d="M230 1.00854L216.792 1.0586L208.295 12.9644L204.622 18.1145H204.356H204.09L200.418 12.9644L191.826 1.0586L179.183 0.958466L198.818 27.5812L198.625 43.4425L204.356 43.5426L210.558 43.4926L210.365 27.6313L230 1.00854Z" fill="#26243A"/>
<path id="Vector_3" d="M0 43.5963V32.8278L25.6839 11.6662L25.6766 10.9581H0.389868V0.904816H43.104V10.9581L18.8922 32.0016V32.8278H43.4939V43.5963H0Z" fill="#26243A"/>
<path id="Vector_4" d="M50.9927 43.4962L69.6189 0.804688H84.8966L103.464 43.4962H91.1782L86.0552 30.3493H81.6683C68.657 30.2992 68.4566 30.875 65.4579 37.6917L63.1332 43.4962H50.9963H50.9927ZM72.1548 21.251H82.4699L78.0794 10.0354H76.5454L72.1548 21.251Z" fill="#26243A"/>
<path id="Vector_5" d="M135 43.5177V0.826163L159.747 0.793976C169.782 0.793976 175.295 5.50767 175.397 13.2398C175.499 20.6823 172.42 24.738 165.395 25.4747V26.3187C169.585 26.891 172.223 28.5433 174.096 32.7348C175.437 35.7354 177.725 41.1501 178.479 43.4139L165.351 43.5641C164.772 41.8689 163.814 39.1723 162.557 36.2969C160.177 31.83 158.509 30.3386 151.054 30.3386L145.905 30.3565V43.5212H135V43.5177ZM145.967 21.3511H158.68C162.557 21.3511 164.444 18.5329 164.444 15.1604C164.444 12.4209 162.189 9.72782 158.618 9.72782H145.905L145.967 21.3511Z" fill="#26243A"/>
<path id="Vector_6" d="M125.005 7.11346C125.005 11.0439 121.759 14.2305 117.754 14.2305C113.75 14.2305 110.507 11.0439 110.507 7.11346C110.507 3.18299 113.75 0 117.754 0C121.759 0 125.005 3.18299 125.005 7.11346Z" fill="#26243A"/>
<g id="Group">
<path id="Vector_7" d="M0 69.3714L4.71485 58.9999H7.11235L11.8272 69.3714H9.90337L8.69004 66.6784H3.10801L1.89468 69.3714H0ZM3.78572 65.1763H8.01233L6.57674 62.0183L5.96097 60.5484H5.83344L5.21767 62.0183L3.78208 65.1763H3.78572Z" fill="#26243A"/>
<path id="Vector_8" d="M19.5625 69.3714V58.9999H21.2641V69.3714H19.5625Z" fill="#26243A"/>
<path id="Vector_9" d="M29.9541 69.3714V58.9999H35.4414C37.8389 58.9999 39.3219 60.1157 39.3219 62.0505C39.3219 63.7708 38.1705 64.8222 36.1847 64.9295V65.0368C37.0045 65.255 37.3834 65.7163 37.7624 66.3672L39.5295 69.3714H37.5729L35.8859 66.5067C35.4122 65.6877 34.924 65.3444 33.5977 65.3444H31.6593V69.3678H29.9577L29.9541 69.3714ZM31.6557 64.0605H35.4232C36.8442 64.0605 37.5511 63.5812 37.5511 62.2794C37.5511 60.9776 36.8405 60.4984 35.4232 60.4984H31.6557V64.0569V64.0605Z" fill="#26243A"/>
<path id="Vector_10" d="M57.1682 69.3714V58.9999H59.4855L62.528 65.0046L63.4899 67.1576H63.6174L64.5465 65.0046L67.5598 58.9999H69.8771V69.3714H68.1756V63.009L68.2375 61.5069H68.11L67.4651 63.009L64.5465 68.7527H62.4952L59.5766 63.009L58.9317 61.5069H58.8042L58.8661 63.009V69.3714H57.1646H57.1682Z" fill="#26243A"/>
<path id="Vector_11" d="M78.1812 64.1856C78.1812 60.949 80.3746 58.8461 83.6867 58.8461C86.9987 58.8461 89.2068 60.9526 89.2068 64.1856C89.2068 67.4187 87.0315 69.5252 83.6867 69.5252C80.3418 69.5252 78.1812 67.4187 78.1812 64.1856ZM87.4068 64.1856C87.4068 61.5999 86.1935 60.4376 83.6867 60.4376C81.1798 60.4376 79.9811 61.5999 79.9811 64.1856C79.9811 66.7714 81.1798 67.9158 83.6867 67.9158C86.1935 67.9158 87.4068 66.7714 87.4068 64.1856Z" fill="#26243A"/>
<path id="Vector_12" d="M97.5215 69.3714V58.9999H99.3506L104.084 65.069L105.457 67.0038H105.585L105.505 65.1298V58.9999H107.206V69.3714H105.377L100.615 63.3202L99.2886 61.4926H99.1611L99.2231 63.288V69.3714H97.5215Z" fill="#26243A"/>
<path id="Vector_13" d="M115.933 69.3714V58.9999H117.634V69.3714H115.933Z" fill="#26243A"/>
<path id="Vector_14" d="M129.636 69.3714V60.5019H125.472V58.9999H135.47V60.5019H131.323V69.3714H129.636Z" fill="#26243A"/>
<path id="Vector_15" d="M142.575 64.1856C142.575 60.949 144.768 58.8461 148.08 58.8461C151.392 58.8461 153.6 60.9526 153.6 64.1856C153.6 67.4187 151.425 69.5252 148.08 69.5252C144.735 69.5252 142.575 67.4187 142.575 64.1856ZM151.8 64.1856C151.8 61.5999 150.587 60.4376 148.08 60.4376C145.573 60.4376 144.375 61.5999 144.375 64.1856C144.375 66.7714 145.573 67.9158 148.08 67.9158C150.587 67.9158 151.8 66.7714 151.8 64.1856Z" fill="#26243A"/>
<path id="Vector_16" d="M161.908 69.3714V58.9999H167.396C169.793 58.9999 171.276 60.1157 171.276 62.0505C171.276 63.7708 170.125 64.8222 168.139 64.9295V65.0368C168.959 65.255 169.338 65.7163 169.716 66.3672L171.484 69.3714H169.527L167.84 66.5067C167.366 65.6877 166.878 65.3444 165.552 65.3444H163.613V69.3678H161.912L161.908 69.3714ZM163.61 64.0605H167.377C168.798 64.0605 169.505 63.5812 169.505 62.2794C169.505 60.9776 168.795 60.4984 167.377 60.4984H163.61V64.0569V64.0605Z" fill="#26243A"/>
<path id="Vector_17" d="M179.536 69.3714V58.9999H181.237V69.3714H179.536Z" fill="#26243A"/>
<path id="Vector_18" d="M189.935 69.3714V58.9999H191.764L196.497 65.069L197.87 67.0038H197.998L197.918 65.1298V58.9999H199.623V69.3714H197.794L193.032 63.3202L191.705 61.4926H191.578L191.64 63.288V69.3714H189.938H189.935Z" fill="#26243A"/>
<path id="Vector_19" d="M207.905 64.1856C207.905 60.949 210.128 58.8461 213.506 58.8461C216.501 58.8461 218.585 60.3339 218.585 62.7336V62.8552H216.708V62.7336C216.708 61.2458 215.652 60.4411 213.458 60.4411C210.919 60.4411 209.705 61.6035 209.705 64.1892C209.705 66.7749 210.904 67.9194 213.382 67.9194C215.859 67.9194 216.898 67.2399 216.898 65.491V65.3515H212.988V64.0819H218.588V69.375H217.043V67.129H216.934C216.493 68.6454 215.152 69.5288 213.087 69.5288C209.979 69.5288 207.913 67.4223 207.913 64.1892L207.905 64.1856Z" fill="#26243A"/>
</g>
</g>
<defs>
<clipPath id="clip0_5_120">
<rect width="230" height="69.5252" fill="white"/>
</clipPath>
</defs>
</svg>
